PathFileType	4	(X/Y/Z)	TVC_39_BWA_04_walk_RCNL2025.trc
DataRate	CameraRate	NumFrames	NumMarkers	Units	OrigDataRate	OrigDataStartFrame	OrigNumFrames
100	100	9	27	mm	100	318	1269
Frame#	Time	R_Shoulder			L_Shoulder			C7			J_Notch			R_Elbow			L_Elbow			R_Wrist			L_Wrist			R_Asis			L_Asis			R_Psis			L_Psis			Sacral			Thoracic			Sternum			R_Thigh_Lateral			R_Knee_Lateral			R_Shank_Lateral			R_Ankle_Lateral			R_Heel			R_Toe			L_Thigh_Lateral			L_Knee_Lateral			L_Shank_Lateral			L_Ankle_Lateral			L_Heel			L_Toe		
		X1	Y1	Z1	X2	Y2	Z2	X3	Y3	Z3	X4	Y4	Z4	X5	Y5	Z5	X6	Y6	Z6	X7	Y7	Z7	X8	Y8	Z8	X9	Y9	Z9	X10	Y10	Z10	X11	Y11	Z11	X12	Y12	Z12	X13	Y13	Z13	X14	Y14	Z14	X15	Y15	Z15	X16	Y16	Z16	X17	Y17	Z17	X18	Y18	Z18	X19	Y19	Z19	X20	Y20	Z20	X21	Y21	Z21	X22	Y22	Z22	X23	Y23	Z23	X24	Y24	Z24	X25	Y25	Z25	X26	Y26	Z26	X27	Y27	Z27
318	3.17000000	-787.061340	1491.199097	354.980438	-727.546814	1482.951660	0.761651	-784.328430	1548.505981	170.828705	-648.924438	1412.351562	191.705826	-788.623413	1184.622437	497.234650	-829.243835	1195.855103	-137.662415	-664.130859	964.205566	455.742752	-802.606934	933.553864	-137.014286	-778.151611	946.846497	328.642731	-721.796448	928.259277	41.893085	-948.815491	983.555847	202.094177	-927.937500	973.874512	96.701164	-938.376495	978.715179	149.397671	-906.843689	1233.138306	147.751465	-622.510986	1247.472656	211.957840	-828.049194	756.310913	413.134247	-818.158142	486.888306	367.662109	-929.097107	334.854950	426.690948	-1014.239014	124.641632	338.221741	-1055.536377	122.977837	283.014160	-890.743164	44.757233	353.727936	-772.956909	680.568420	-39.665245	-748.220093	465.666962	58.296814	-798.767151	329.823608	10.969716	-848.150208	76.384552	114.195618	-888.227539	63.414886	175.094421	-706.672974	41.373268	100.611008
319	3.18000000	-785.376038	1491.278198	354.333374	-725.520264	1482.832031	0.117224	-782.464722	1548.573242	170.190231	-647.231506	1412.285156	191.205185	-786.898804	1185.427002	497.683929	-827.637207	1196.110718	-138.691833	-661.678650	965.306702	456.573975	-801.694031	933.723145	-138.862324	-777.160339	947.086121	327.678497	-719.932739	928.447266	40.797161	-947.601379	983.876038	200.836212	-926.523621	974.126465	95.513367	-937.062500	979.001251	148.174789	-905.257629	1233.431396	146.700882	-621.027039	1247.368896	211.529388	-827.177124	756.677002	412.255676	-817.182373	487.259064	367.186523	-928.244324	335.362885	426.426117	-1013.771606	125.288086	338.332306	-1055.105103	123.656998	283.110565	-890.583313	44.720871	353.709991	-772.465027	680.483521	-40.548405	-748.329407	465.533752	57.667866	-799.406677	329.679596	10.732074	-848.175293	76.330750	114.828636	-887.891663	63.470791	175.991837	-706.737854	41.338848	100.593773
320	3.19000000	-783.791260	1491.328613	353.670990	-723.529480	1482.708130	-0.544984	-780.688416	1548.626953	169.535477	-645.598572	1412.219971	190.704269	-785.282776	1186.238770	498.176788	-825.930664	1196.301025	-139.719513	-659.319763	966.420197	457.516510	-800.549042	933.846313	-140.613766	-776.095581	947.335999	326.750793	-718.125549	928.572266	39.768036	-946.405579	984.165161	199.627060	-925.137817	974.326355	94.377144	-935.771698	979.245758	147.002102	-903.715271	1233.692871	145.626389	-619.595703	1247.269287	211.092926	-826.293701	756.980713	411.332733	-816.449829	487.594727	366.618652	-927.629578	335.770599	426.066681	-1013.374329	125.795815	338.349213	-1054.745361	124.147888	283.090485	-890.451721	44.680912	353.659027	-771.984619	680.342407	-41.316242	-748.281250	465.346069	57.122330	-799.808594	329.489777	10.433205	-848.210938	76.224594	115.263275	-887.663635	63.454327	176.602951	-706.824707	41.304676	100.557297
321	3.20000000	-782.308472	1491.352173	352.990326	-721.574402	1482.579590	-1.228283	-778.999756	1548.668457	168.860901	-644.026733	1412.157104	190.201065	-783.765381	1187.050903	498.693634	-824.120605	1196.423218	-140.747711	-657.055359	967.532562	458.562637	-799.171478	933.919525	-142.261459	-774.964966	947.598511	325.865173	-716.373718	928.635620	38.812634	-945.228943	984.422607	198.468567	-923.780518	974.474365	93.294342	-934.504730	979.448486	145.881454	-902.216858	1233.923218	144.526428	-618.218140	1247.175171	210.648346	-825.375366	757.234192	410.385101	-815.887573	487.899811	365.990662	-927.193665	336.099792	425.637939	-1013.025818	126.200829	338.286591	-1054.433960	124.501350	282.970947	-890.343323	44.638077	353.575653	-771.493591	680.153442	-41.964104	-748.081177	465.108154	56.660233	-799.970093	329.259155	10.060524	-848.261902	76.064629	115.475037	-887.566711	63.364700	176.887070	-706.934998	41.270271	100.497177
322	3.21000000	-780.928833	1491.351440	352.288788	-719.655151	1482.446533	-1.935255	-777.398499	1548.699463	168.163315	-642.517151	1412.098267	189.693939	-782.336548	1187.856812	499.214508	-822.205566	1196.476074	-141.777802	-654.886505	968.630951	459.704071	-797.564148	933.940277	-143.797680	-773.779785	947.876404	325.026794	-714.674866	928.640991	37.937199	-944.072632	984.648438	197.361954	-922.451782	974.571838	92.266075	-933.262207	979.610138	144.814014	-900.762573	1234.123901	143.400223	-616.895569	1247.088135	210.196152	-824.395142	757.452820	409.434662	-815.416077	488.181580	365.339172	-926.869568	336.376770	425.169434	-1012.700928	126.545174	338.161652	-1054.142212	124.776093	282.772858	-890.252136	44.593967	353.461487	-770.965698	679.927124	-42.489876	-747.739929	464.827545	56.280602	-799.898193	328.994720	9.611629	-848.329834	75.854034	115.458450	-887.612183	63.208103	176.832626	-707.067688	41.235577	100.412590
323	3.22000000	-779.652954	1491.330200	351.564453	-717.771851	1482.309326	-2.667634	-775.884033	1548.722168	167.440033	-641.070740	1412.045288	189.181656	-780.986633	1188.650391	499.719696	-820.186401	1196.459717	-142.810120	-652.814270	969.703217	460.931931	-795.732971	933.907532	-145.214203	-772.553833	948.172302	324.240448	-713.025879	928.594055	37.147137	-942.937500	984.843506	196.307846	-921.151672	974.621643	91.292778	-932.044586	979.732574	143.800312	-899.352417	1234.296631	142.247787	-615.629150	1247.010376	209.737503	-823.324280	757.654785	408.504181	-814.952026	488.449677	364.703766	-926.585510	336.630981	424.693176	-1012.372437	126.874969	337.993652	-1053.838379	125.035896	282.519745	-890.171509	44.551296	353.319061	-770.372803	679.675110	-42.893860	-747.273254	464.514557	55.981575	-799.609436	328.704987	9.094848	-848.413086	75.600510	115.227837	-887.797119	62.996971	176.459015	-707.218811	41.201000	100.306679
324	3.23000000	-778.480957	1491.292969	350.815918	-715.925232	1482.169189	-3.426208	-774.455139	1548.739258	166.688965	-639.688477	1412.000122	188.663422	-779.706787	1189.426514	500.190399	-818.065979	1196.375732	-143.843918	-650.839752	970.738525	462.236786	-793.686554	933.821747	-146.502522	-771.302795	948.488831	323.510345	-711.422729	928.502136	36.446823	-941.824585	985.009338	195.306458	-919.880249	974.627563	90.374321	-930.852417	979.818451	142.840389	-897.986328	1234.443726	141.070068	-614.419800	1246.943848	209.274063	-822.133728	757.859802	407.616394	-814.412537	488.715698	364.125366	-926.268433	336.893646	424.242004	-1012.012024	127.238243	337.802887	-1053.489014	125.346497	282.236420	-890.094727	44.514050	353.151886	-769.687500	679.409058	-43.178299	-746.700806	464.181305	55.760433	-799.128357	328.399567	8.528097	-848.506714	75.315353	114.815102	-888.105347	62.748154	175.813187	-707.381775	41.167301	100.186195
325	3.24000000	-777.412170	1491.244751	350.042542	-714.116211	1482.027588	-4.210767	-773.110352	1548.753540	165.908768	-638.371155	1411.965332	188.138931	-778.489258	1190.180542	500.609283	-815.849487	1196.226685	-144.877167	-648.964111	971.727325	463.608536	-791.436096	933.684723	-147.654087	-770.042786	948.828430	322.839874	-709.861084	928.374084	35.839363	-940.734436	985.147949	194.357666	-918.637268	974.594360	89.510147	-929.685852	979.871155	141.933907	-896.663940	1234.567871	139.868958	-613.268066	1246.891113	208.807983	-820.796326	758.088379	406.792908	-813.718384	488.992493	363.644409	-925.847961	337.196472	423.847992	-1011.591797	127.682457	337.609497	-1053.060547	125.772324	281.947418	-890.014771	44.487614	352.964142	-768.886719	679.139832	-43.346909	-746.045349	463.840851	55.613533	-798.486267	328.088409	7.936288	-848.603271	75.011940	114.265015	-888.509888	62.480244	174.962250	-707.548401	41.135410	100.060570
326	3.25000000	-776.445374	1491.190918	349.244537	-712.346497	1481.886108	-5.020075	-771.847656	1548.767822	165.098984	-637.119080	1411.943115	187.608322	-777.327637	1190.908813	500.961151	-813.544189	1196.015991	-145.906601	-647.188568	972.661743	465.036545	-788.994751	933.499298	-148.660580	-768.789673	949.193115	322.231537	-708.336182	928.219666	35.326309	-939.667419	985.261902	193.461166	-917.422424	974.527405	88.699463	-928.544922	979.894653	141.080315	-895.384705	1234.671753	138.647324	-612.174255	1246.854370	208.341766	-819.288635	758.360718	406.053345	-812.797668	489.293762	363.298950	-925.259583	337.569885	423.540649	-1011.085632	128.252136	337.432495	-1052.521118	126.373260	281.675781	-889.924622	44.478851	352.760986	-767.955200	678.876648	-43.404743	-745.332153	463.505890	55.536358	-797.718811	327.781036	7.347811	-848.694031	74.703934	113.629028	-888.976685	62.210602	173.983871	-707.709473	41.106136	99.940422
